HIERARCHY
ROOT Hips
{
	OFFSET 0.000000 105.850000 0.000000
	CHANNELS 6 Xposition Yposition Zposition Yrotation Xrotation Zrotation
	JOINT RightUpLeg
	{
		OFFSET -11.500000 -1.850000 0.000000
		CHANNELS 3 Yrotation Xrotation Zrotation
		JOINT RightLeg
		{
			OFFSET 0.000000 -48.000000 0.000000
			CHANNELS 3 Yrotation Xrotation Zrotation
			JOINT RightFoot
			{
				OFFSET 0.000000 -48.000000 0.000000
				CHANNELS 3 Yrotation Xrotation Zrotation
				End Site
				{
					OFFSET 0.000000 -8.000000 19.600000
				}
			}
		}
	}
	JOINT LeftUpLeg
	{
		OFFSET 11.500000 -1.850000 0.000000
		CHANNELS 3 Yrotation Xrotation Zrotation
		JOINT LeftLeg
		{
			OFFSET 0.000000 -48.000000 0.000000
			CHANNELS 3 Yrotation Xrotation Zrotation
			JOINT LeftFoot
			{
				OFFSET 0.000000 -48.000000 0.000000
				CHANNELS 3 Yrotation Xrotation Zrotation
				End Site
				{
					OFFSET 0.000000 -8.000000 19.600000
				}
			}
		}
	}
	JOINT Spine
	{
		OFFSET 0.000000 16.654000 0.000000
		CHANNELS 3 Yrotation Xrotation Zrotation
		JOINT Spine1
		{
			OFFSET 0.000000 11.312000 0.000000
			CHANNELS 3 Yrotation Xrotation Zrotation
			JOINT Spine2
			{
				OFFSET 0.000000 11.780000 0.000000
				CHANNELS 3 Yrotation Xrotation Zrotation
				JOINT Spine3
				{
					OFFSET 0.000000 11.312000 0.000000
					CHANNELS 3 Yrotation Xrotation Zrotation
					JOINT Neck
					{
						OFFSET 0.000000 12.091000 0.000000
						CHANNELS 3 Yrotation Xrotation Zrotation
						JOINT Head
						{
							OFFSET 0.000000 9.000000 0.000000
							CHANNELS 3 Yrotation Xrotation Zrotation
							End Site
							{
								OFFSET 0.000000 18.000000 0.000000
							}
						}
					}
					JOINT RightShoulder
					{
						OFFSET -3.500000 8.061000 0.000000
						CHANNELS 3 Yrotation Xrotation Zrotation
						JOINT RightArm
						{
							OFFSET -14.000000 0.000000 0.000000
							CHANNELS 3 Yrotation Xrotation Zrotation
							JOINT RightForeArm
							{
								OFFSET -29.000000 0.000000 0.000000
								CHANNELS 3 Yrotation Xrotation Zrotation
								JOINT RightHand
								{
									OFFSET -28.000000 0.000000 0.000000
									CHANNELS 3 Yrotation Xrotation Zrotation
									End Site
									{
										OFFSET -3.672000 0.562000 0.822000
									}
								}
							}
						}
					}
					JOINT LeftShoulder
					{
						OFFSET 3.500000 8.061000 0.000000
						CHANNELS 3 Yrotation Xrotation Zrotation
						JOINT LeftArm
						{
							OFFSET 14.000000 0.000000 0.000000
							CHANNELS 3 Yrotation Xrotation Zrotation
							JOINT LeftForeArm
							{
								OFFSET 29.000000 0.000000 0.000000
								CHANNELS 3 Yrotation Xrotation Zrotation
								JOINT LeftHand
								{
									OFFSET 28.000000 0.000000 0.000000
									CHANNELS 3 Yrotation Xrotation Zrotation
									End Site
									{
										OFFSET 3.672000 0.562000 0.822000
									}
								}
							}
						}
					}
				}
			}
		}
	}
}
MOTION
Frames: 2
Frame Time: 0.041667
249.52 101.18 59.04 92.12 0.54 -0.88 -5.91 2.71 3.24 -0.0 41.47 -0.0 -5.65 -5.59 6.02 -9.4 -31.84 3.28 0.0 27.77 0.0 5.53 -11.48 -3.91 5.16 4.7 1.55 1.3 1.25 0.35 2.19 2.12 0.6 0.51 2.21 -0.19 0.02 20.15 -1.92 9.28 37.3 -1.02 -1.91 9.05 -7.31 -9.87 -5.55 64.71 41.53 3.41 27.14 0.94 5.76 -11.48 -2.13 10.0 -10.04 17.43 1.25 -55.95 -50.56 1.29 -8.17 7.77 30.25 0.35
330.47 99.62 60.72 90.75 5.14 0.83 -7.44 -40.51 6.82 -0.0 40.72 -0.0 -19.69 -15.42 6.88 0.77 -3.68 -0.6 0.0 47.71 0.0 -1.04 -0.4 9.75 -0.94 7.82 2.92 -0.21 1.94 0.74 -0.28 3.2 1.23 0.79 1.27 -0.49 0.79 1.31 -0.5 11.88 30.61 -6.63 -8.82 9.03 -8.04 -14.91 0.32 68.47 31.28 23.5 25.09 -5.48 24.5 7.9 -13.51 6.04 -11.45 2.54 0.63 -42.76 -68.75 -14.18 -28.55 -5.06 15.98 11.12
